<mxfile host="app.diagrams.net" modified="2022-02-14T11:27:38.588Z" agent="5.0 (Windows NT 10.0; Win64; x64) AppleWebKit/537.36 (KHTML, like Gecko) Chrome/98.0.4758.80 Safari/537.36 Edg/98.0.1108.50" etag="4hOWalCquomL_G8d9QsH" version="16.5.6" type="github">
  <diagram id="zmu0WpDvuOlovamAlwSG" name="Page-1">
    <mxGraphModel dx="1197" dy="632" grid="1" gridSize="10" guides="1" tooltips="1" connect="1" arrows="1" fold="1" page="1" pageScale="1" pageWidth="827" pageHeight="1169" math="0" shadow="0">
      <root>
        <mxCell id="0" />
        <mxCell id="1" parent="0" />
        <mxCell id="V9fXNOHrXrLfAql_X_GS-241" value="" style="endArrow=classic;html=1;rounded=0;entryX=1;entryY=1;entryDx=0;entryDy=0;exitX=0.429;exitY=0.243;exitDx=0;exitDy=0;fillColor=#dae8fc;strokeColor=#6c8ebf;exitPerimeter=0;" edge="1" parent="1" source="V9fXNOHrXrLfAql_X_GS-206" target="V9fXNOHrXrLfAql_X_GS-3">
          <mxGeometry width="50" height="50" relative="1" as="geometry">
            <mxPoint x="420" y="780" as="sourcePoint" />
            <mxPoint x="470" y="730" as="targetPoint" />
          </mxGeometry>
        </mxCell>
        <mxCell id="V9fXNOHrXrLfAql_X_GS-221" value="&amp;nbsp; &amp;nbsp; &amp;nbsp; Plante 5 : Progress Bar&amp;nbsp; &amp;nbsp; &amp;nbsp; &amp;nbsp;" style="text;html=1;resizable=0;autosize=1;align=center;verticalAlign=middle;points=[];fillColor=#d5e8d4;strokeColor=#82b366;rounded=0;fontStyle=2;labelBackgroundColor=none;" vertex="1" parent="1">
          <mxGeometry x="570" y="750" width="180" height="20" as="geometry" />
        </mxCell>
        <mxCell id="V9fXNOHrXrLfAql_X_GS-1" value="" style="swimlane;startSize=0;swimlaneFillColor=default;" vertex="1" parent="1">
          <mxGeometry x="280" y="240" width="200" height="360" as="geometry" />
        </mxCell>
        <mxCell id="V9fXNOHrXrLfAql_X_GS-3" value="" style="rounded=0;whiteSpace=wrap;html=1;" vertex="1" parent="V9fXNOHrXrLfAql_X_GS-1">
          <mxGeometry y="330" width="200" height="30" as="geometry" />
        </mxCell>
        <mxCell id="V9fXNOHrXrLfAql_X_GS-18" value="" style="whiteSpace=wrap;html=1;aspect=fixed;" vertex="1" parent="V9fXNOHrXrLfAql_X_GS-1">
          <mxGeometry x="10" y="30" width="80" height="80" as="geometry" />
        </mxCell>
        <mxCell id="V9fXNOHrXrLfAql_X_GS-19" value="" style="whiteSpace=wrap;html=1;aspect=fixed;" vertex="1" parent="V9fXNOHrXrLfAql_X_GS-1">
          <mxGeometry x="110" y="30" width="80" height="80" as="geometry" />
        </mxCell>
        <mxCell id="V9fXNOHrXrLfAql_X_GS-20" value="" style="whiteSpace=wrap;html=1;aspect=fixed;" vertex="1" parent="V9fXNOHrXrLfAql_X_GS-1">
          <mxGeometry x="10" y="130" width="80" height="80" as="geometry" />
        </mxCell>
        <mxCell id="V9fXNOHrXrLfAql_X_GS-21" value="" style="whiteSpace=wrap;html=1;aspect=fixed;" vertex="1" parent="V9fXNOHrXrLfAql_X_GS-1">
          <mxGeometry x="110" y="130" width="80" height="80" as="geometry" />
        </mxCell>
        <mxCell id="V9fXNOHrXrLfAql_X_GS-22" value="" style="whiteSpace=wrap;html=1;aspect=fixed;" vertex="1" parent="V9fXNOHrXrLfAql_X_GS-1">
          <mxGeometry x="10" y="230" width="80" height="80" as="geometry" />
        </mxCell>
        <mxCell id="V9fXNOHrXrLfAql_X_GS-23" value="" style="whiteSpace=wrap;html=1;aspect=fixed;" vertex="1" parent="V9fXNOHrXrLfAql_X_GS-1">
          <mxGeometry x="110" y="230" width="80" height="80" as="geometry" />
        </mxCell>
        <mxCell id="V9fXNOHrXrLfAql_X_GS-24" value="" style="rounded=0;whiteSpace=wrap;html=1;" vertex="1" parent="V9fXNOHrXrLfAql_X_GS-1">
          <mxGeometry width="200" height="20" as="geometry" />
        </mxCell>
        <mxCell id="V9fXNOHrXrLfAql_X_GS-154" value="Plantes" style="text;html=1;resizable=0;autosize=1;align=center;verticalAlign=middle;points=[];fillColor=none;strokeColor=none;rounded=0;" vertex="1" parent="V9fXNOHrXrLfAql_X_GS-1">
          <mxGeometry x="104" y="230" width="60" height="20" as="geometry" />
        </mxCell>
        <mxCell id="V9fXNOHrXrLfAql_X_GS-155" value="Multimedia" style="text;html=1;resizable=0;autosize=1;align=center;verticalAlign=middle;points=[];fillColor=none;strokeColor=none;rounded=0;" vertex="1" parent="V9fXNOHrXrLfAql_X_GS-1">
          <mxGeometry x="110" y="130" width="70" height="20" as="geometry" />
        </mxCell>
        <mxCell id="V9fXNOHrXrLfAql_X_GS-156" value="Animaux" style="text;html=1;resizable=0;autosize=1;align=center;verticalAlign=middle;points=[];fillColor=none;strokeColor=none;rounded=0;" vertex="1" parent="V9fXNOHrXrLfAql_X_GS-1">
          <mxGeometry x="10" y="230" width="60" height="20" as="geometry" />
        </mxCell>
        <mxCell id="V9fXNOHrXrLfAql_X_GS-157" value="Livres" style="text;html=1;resizable=0;autosize=1;align=center;verticalAlign=middle;points=[];fillColor=none;strokeColor=none;rounded=0;" vertex="1" parent="V9fXNOHrXrLfAql_X_GS-1">
          <mxGeometry x="5" y="130" width="50" height="20" as="geometry" />
        </mxCell>
        <mxCell id="V9fXNOHrXrLfAql_X_GS-159" value="Courses" style="text;html=1;resizable=0;autosize=1;align=center;verticalAlign=middle;points=[];fillColor=none;strokeColor=none;rounded=0;" vertex="1" parent="V9fXNOHrXrLfAql_X_GS-1">
          <mxGeometry x="110" y="30" width="60" height="20" as="geometry" />
        </mxCell>
        <mxCell id="V9fXNOHrXrLfAql_X_GS-160" value="Calendrier" style="text;html=1;resizable=0;autosize=1;align=center;verticalAlign=middle;points=[];fillColor=none;strokeColor=none;rounded=0;" vertex="1" parent="V9fXNOHrXrLfAql_X_GS-1">
          <mxGeometry x="10" y="30" width="70" height="20" as="geometry" />
        </mxCell>
        <mxCell id="V9fXNOHrXrLfAql_X_GS-182" value="" style="ellipse;whiteSpace=wrap;html=1;aspect=fixed;" vertex="1" parent="V9fXNOHrXrLfAql_X_GS-1">
          <mxGeometry x="140" y="200" width="20" height="20" as="geometry" />
        </mxCell>
        <mxCell id="V9fXNOHrXrLfAql_X_GS-184" value="" style="ellipse;whiteSpace=wrap;html=1;aspect=fixed;" vertex="1" parent="V9fXNOHrXrLfAql_X_GS-1">
          <mxGeometry x="140" y="300" width="20" height="20" as="geometry" />
        </mxCell>
        <mxCell id="V9fXNOHrXrLfAql_X_GS-185" value="4" style="text;html=1;resizable=0;autosize=1;align=center;verticalAlign=middle;points=[];fillColor=none;strokeColor=none;rounded=0;" vertex="1" parent="V9fXNOHrXrLfAql_X_GS-1">
          <mxGeometry x="139" y="200" width="20" height="20" as="geometry" />
        </mxCell>
        <mxCell id="V9fXNOHrXrLfAql_X_GS-188" value="16" style="text;html=1;resizable=0;autosize=1;align=center;verticalAlign=middle;points=[];fillColor=none;strokeColor=none;rounded=0;" vertex="1" parent="V9fXNOHrXrLfAql_X_GS-1">
          <mxGeometry x="134" y="300" width="30" height="20" as="geometry" />
        </mxCell>
        <mxCell id="V9fXNOHrXrLfAql_X_GS-190" value="Image" style="text;html=1;resizable=0;autosize=1;align=center;verticalAlign=middle;points=[];fillColor=#f8cecc;strokeColor=#b85450;rounded=0;rotation=45;" vertex="1" parent="V9fXNOHrXrLfAql_X_GS-1">
          <mxGeometry x="25" y="70" width="50" height="20" as="geometry" />
        </mxCell>
        <mxCell id="V9fXNOHrXrLfAql_X_GS-191" value="Image" style="text;html=1;resizable=0;autosize=1;align=center;verticalAlign=middle;points=[];fillColor=#f8cecc;strokeColor=#b85450;rounded=0;rotation=45;" vertex="1" parent="V9fXNOHrXrLfAql_X_GS-1">
          <mxGeometry x="124" y="70" width="50" height="20" as="geometry" />
        </mxCell>
        <mxCell id="V9fXNOHrXrLfAql_X_GS-192" value="Image" style="text;html=1;resizable=0;autosize=1;align=center;verticalAlign=middle;points=[];fillColor=#f8cecc;strokeColor=#b85450;rounded=0;rotation=45;" vertex="1" parent="V9fXNOHrXrLfAql_X_GS-1">
          <mxGeometry x="25" y="170" width="50" height="20" as="geometry" />
        </mxCell>
        <mxCell id="V9fXNOHrXrLfAql_X_GS-193" value="Image" style="text;html=1;resizable=0;autosize=1;align=center;verticalAlign=middle;points=[];fillColor=#f8cecc;strokeColor=#b85450;rounded=0;rotation=45;" vertex="1" parent="V9fXNOHrXrLfAql_X_GS-1">
          <mxGeometry x="124" y="170" width="50" height="20" as="geometry" />
        </mxCell>
        <mxCell id="V9fXNOHrXrLfAql_X_GS-194" value="Image" style="text;html=1;resizable=0;autosize=1;align=center;verticalAlign=middle;points=[];fillColor=#f8cecc;strokeColor=#b85450;rounded=0;rotation=45;" vertex="1" parent="V9fXNOHrXrLfAql_X_GS-1">
          <mxGeometry x="25" y="270" width="50" height="20" as="geometry" />
        </mxCell>
        <mxCell id="V9fXNOHrXrLfAql_X_GS-195" value="Image" style="text;html=1;resizable=0;autosize=1;align=center;verticalAlign=middle;points=[];fillColor=#f8cecc;strokeColor=#b85450;rounded=0;rotation=45;" vertex="1" parent="V9fXNOHrXrLfAql_X_GS-1">
          <mxGeometry x="125" y="270" width="50" height="20" as="geometry" />
        </mxCell>
        <mxCell id="V9fXNOHrXrLfAql_X_GS-2" value="" style="swimlane;startSize=0;swimlaneFillColor=#FFFFFF;" vertex="1" parent="1">
          <mxGeometry x="560" y="600" width="200" height="360" as="geometry" />
        </mxCell>
        <mxCell id="V9fXNOHrXrLfAql_X_GS-220" value="&amp;nbsp; &amp;nbsp; &amp;nbsp; Plante 4 : Progress Bar&amp;nbsp; &amp;nbsp; &amp;nbsp; &amp;nbsp;" style="text;html=1;resizable=0;autosize=1;align=center;verticalAlign=middle;points=[];fillColor=#d5e8d4;strokeColor=#82b366;rounded=0;fontStyle=2;labelBackgroundColor=none;" vertex="1" parent="V9fXNOHrXrLfAql_X_GS-2">
          <mxGeometry x="10" y="120" width="180" height="20" as="geometry" />
        </mxCell>
        <mxCell id="V9fXNOHrXrLfAql_X_GS-219" value="&amp;nbsp; &amp;nbsp; &amp;nbsp; Plante 3 : Progress Bar&amp;nbsp; &amp;nbsp; &amp;nbsp; &amp;nbsp;" style="text;html=1;resizable=0;autosize=1;align=center;verticalAlign=middle;points=[];fillColor=#d5e8d4;strokeColor=#82b366;rounded=0;fontStyle=2;labelBackgroundColor=none;" vertex="1" parent="V9fXNOHrXrLfAql_X_GS-2">
          <mxGeometry x="10" y="90" width="180" height="20" as="geometry" />
        </mxCell>
        <mxCell id="V9fXNOHrXrLfAql_X_GS-218" value="&amp;nbsp; &amp;nbsp; &amp;nbsp; Plante 2 : Progress Bar&amp;nbsp; &amp;nbsp; &amp;nbsp; &amp;nbsp;" style="text;html=1;resizable=0;autosize=1;align=center;verticalAlign=middle;points=[];fillColor=#d5e8d4;strokeColor=#82b366;rounded=0;fontStyle=2;labelBackgroundColor=none;" vertex="1" parent="V9fXNOHrXrLfAql_X_GS-2">
          <mxGeometry x="10" y="60" width="180" height="20" as="geometry" />
        </mxCell>
        <mxCell id="V9fXNOHrXrLfAql_X_GS-27" value="" style="rounded=0;whiteSpace=wrap;html=1;" vertex="1" parent="V9fXNOHrXrLfAql_X_GS-2">
          <mxGeometry width="200" height="20" as="geometry" />
        </mxCell>
        <mxCell id="V9fXNOHrXrLfAql_X_GS-197" value="" style="rounded=0;whiteSpace=wrap;html=1;" vertex="1" parent="V9fXNOHrXrLfAql_X_GS-2">
          <mxGeometry y="330" width="200" height="30" as="geometry" />
        </mxCell>
        <mxCell id="V9fXNOHrXrLfAql_X_GS-198" value="&amp;nbsp; &amp;nbsp; &amp;nbsp; Plante 1 : Progress Bar&amp;nbsp; &amp;nbsp; &amp;nbsp; &amp;nbsp;" style="text;html=1;resizable=0;autosize=1;align=center;verticalAlign=middle;points=[];fillColor=#d5e8d4;strokeColor=#82b366;rounded=0;fontStyle=2;labelBackgroundColor=none;" vertex="1" parent="V9fXNOHrXrLfAql_X_GS-2">
          <mxGeometry x="10" y="30" width="180" height="20" as="geometry" />
        </mxCell>
        <mxCell id="V9fXNOHrXrLfAql_X_GS-206" value="Home" style="text;html=1;resizable=0;autosize=1;align=center;verticalAlign=middle;points=[];fillColor=none;strokeColor=none;rounded=0;labelBackgroundColor=none;" vertex="1" parent="V9fXNOHrXrLfAql_X_GS-2">
          <mxGeometry x="75" y="335" width="50" height="20" as="geometry" />
        </mxCell>
        <mxCell id="V9fXNOHrXrLfAql_X_GS-207" value="Ajout" style="text;html=1;resizable=0;autosize=1;align=center;verticalAlign=middle;points=[];fillColor=none;strokeColor=none;rounded=0;labelBackgroundColor=none;" vertex="1" parent="V9fXNOHrXrLfAql_X_GS-2">
          <mxGeometry x="10" y="335" width="40" height="20" as="geometry" />
        </mxCell>
        <mxCell id="V9fXNOHrXrLfAql_X_GS-209" value="Suppression" style="text;html=1;resizable=0;autosize=1;align=center;verticalAlign=middle;points=[];fillColor=none;strokeColor=none;rounded=0;labelBackgroundColor=none;" vertex="1" parent="V9fXNOHrXrLfAql_X_GS-2">
          <mxGeometry x="120" y="335" width="80" height="20" as="geometry" />
        </mxCell>
        <mxCell id="V9fXNOHrXrLfAql_X_GS-212" value="i" style="text;html=1;resizable=0;autosize=1;align=center;verticalAlign=middle;points=[];fillColor=#e1d5e7;strokeColor=#9673a6;rounded=0;labelBackgroundColor=none;" vertex="1" parent="V9fXNOHrXrLfAql_X_GS-2">
          <mxGeometry x="170" y="30" width="20" height="20" as="geometry" />
        </mxCell>
        <mxCell id="V9fXNOHrXrLfAql_X_GS-214" value="i" style="text;html=1;resizable=0;autosize=1;align=center;verticalAlign=middle;points=[];fillColor=#e1d5e7;strokeColor=#9673a6;rounded=0;labelBackgroundColor=none;" vertex="1" parent="V9fXNOHrXrLfAql_X_GS-2">
          <mxGeometry x="170" y="60" width="20" height="20" as="geometry" />
        </mxCell>
        <mxCell id="V9fXNOHrXrLfAql_X_GS-215" value="i" style="text;html=1;resizable=0;autosize=1;align=center;verticalAlign=middle;points=[];fillColor=#e1d5e7;strokeColor=#9673a6;rounded=0;labelBackgroundColor=none;" vertex="1" parent="V9fXNOHrXrLfAql_X_GS-2">
          <mxGeometry x="170" y="90" width="20" height="20" as="geometry" />
        </mxCell>
        <mxCell id="V9fXNOHrXrLfAql_X_GS-216" value="i" style="text;html=1;resizable=0;autosize=1;align=center;verticalAlign=middle;points=[];fillColor=#e1d5e7;strokeColor=#9673a6;rounded=0;labelBackgroundColor=none;" vertex="1" parent="V9fXNOHrXrLfAql_X_GS-2">
          <mxGeometry x="170" y="120" width="20" height="20" as="geometry" />
        </mxCell>
        <mxCell id="V9fXNOHrXrLfAql_X_GS-217" value="i" style="text;html=1;resizable=0;autosize=1;align=center;verticalAlign=middle;points=[];fillColor=#e1d5e7;strokeColor=#9673a6;rounded=0;labelBackgroundColor=none;" vertex="1" parent="V9fXNOHrXrLfAql_X_GS-2">
          <mxGeometry x="170" y="150" width="20" height="20" as="geometry" />
        </mxCell>
        <mxCell id="V9fXNOHrXrLfAql_X_GS-223" value="" style="dashed=0;labelPosition=right;align=left;shape=mxgraph.gmdl.checkbox;strokeColor=#666666;fillColor=none;strokeWidth=2;aspect=fixed;sketch=0;rounded=0;labelBackgroundColor=none;" vertex="1" parent="V9fXNOHrXrLfAql_X_GS-2">
          <mxGeometry x="20" y="35" width="10" height="10" as="geometry" />
        </mxCell>
        <mxCell id="V9fXNOHrXrLfAql_X_GS-225" value="" style="dashed=0;labelPosition=right;align=left;shape=mxgraph.gmdl.checkbox;strokeColor=#666666;fillColor=none;strokeWidth=2;aspect=fixed;sketch=0;rounded=0;labelBackgroundColor=none;" vertex="1" parent="V9fXNOHrXrLfAql_X_GS-2">
          <mxGeometry x="20" y="65" width="10" height="10" as="geometry" />
        </mxCell>
        <mxCell id="V9fXNOHrXrLfAql_X_GS-404" value="&amp;nbsp; &amp;nbsp; &amp;nbsp; Plante 4 : Progress Bar&amp;nbsp; &amp;nbsp; &amp;nbsp; &amp;nbsp;" style="text;html=1;resizable=0;autosize=1;align=center;verticalAlign=middle;points=[];fillColor=#d5e8d4;strokeColor=#82b366;rounded=0;fontStyle=2;labelBackgroundColor=none;" vertex="1" parent="V9fXNOHrXrLfAql_X_GS-2">
          <mxGeometry x="10" y="150" width="180" height="20" as="geometry" />
        </mxCell>
        <mxCell id="V9fXNOHrXrLfAql_X_GS-226" value="" style="dashed=0;labelPosition=right;align=left;shape=mxgraph.gmdl.checkbox;strokeColor=#666666;fillColor=none;strokeWidth=2;aspect=fixed;sketch=0;rounded=0;labelBackgroundColor=none;" vertex="1" parent="V9fXNOHrXrLfAql_X_GS-2">
          <mxGeometry x="20" y="95" width="10" height="10" as="geometry" />
        </mxCell>
        <mxCell id="V9fXNOHrXrLfAql_X_GS-227" value="" style="dashed=0;labelPosition=right;align=left;shape=mxgraph.gmdl.checkbox;strokeColor=#666666;fillColor=none;strokeWidth=2;aspect=fixed;sketch=0;rounded=0;labelBackgroundColor=none;" vertex="1" parent="V9fXNOHrXrLfAql_X_GS-2">
          <mxGeometry x="20" y="125" width="10" height="10" as="geometry" />
        </mxCell>
        <mxCell id="V9fXNOHrXrLfAql_X_GS-229" value="" style="dashed=0;labelPosition=right;align=left;shape=mxgraph.gmdl.checkbox;strokeColor=none;fillColor=#676767;strokeWidth=2;aspect=fixed;sketch=0;rounded=0;labelBackgroundColor=none;" vertex="1" parent="V9fXNOHrXrLfAql_X_GS-2">
          <mxGeometry x="20" y="155" width="10" height="10" as="geometry" />
        </mxCell>
        <mxCell id="V9fXNOHrXrLfAql_X_GS-405" value="i" style="text;html=1;resizable=0;autosize=1;align=center;verticalAlign=middle;points=[];fillColor=#e1d5e7;strokeColor=#9673a6;rounded=0;labelBackgroundColor=none;" vertex="1" parent="V9fXNOHrXrLfAql_X_GS-2">
          <mxGeometry x="170" y="150" width="20" height="20" as="geometry" />
        </mxCell>
        <mxCell id="V9fXNOHrXrLfAql_X_GS-158" value="" style="endArrow=classic;html=1;rounded=0;entryX=0;entryY=0;entryDx=0;entryDy=0;exitX=1;exitY=1;exitDx=0;exitDy=0;fillColor=#dae8fc;strokeColor=#6c8ebf;" edge="1" parent="1" source="V9fXNOHrXrLfAql_X_GS-23" target="V9fXNOHrXrLfAql_X_GS-2">
          <mxGeometry width="50" height="50" relative="1" as="geometry">
            <mxPoint x="460" y="740" as="sourcePoint" />
            <mxPoint x="510" y="690" as="targetPoint" />
          </mxGeometry>
        </mxCell>
        <mxCell id="V9fXNOHrXrLfAql_X_GS-4" value="" style="rounded=0;whiteSpace=wrap;html=1;" vertex="1" parent="1">
          <mxGeometry x="560" y="970" width="200" height="30" as="geometry" />
        </mxCell>
        <mxCell id="V9fXNOHrXrLfAql_X_GS-203" value="" style="curved=1;endArrow=classic;html=1;rounded=0;exitX=-0.004;exitY=0.481;exitDx=0;exitDy=0;exitPerimeter=0;entryX=0;entryY=0.5;entryDx=0;entryDy=0;startArrow=none;fillColor=#dae8fc;strokeColor=#6c8ebf;" edge="1" parent="1" source="V9fXNOHrXrLfAql_X_GS-221" target="V9fXNOHrXrLfAql_X_GS-4">
          <mxGeometry width="50" height="50" relative="1" as="geometry">
            <mxPoint x="666.6599999999999" y="770.3799999999999" as="sourcePoint" />
            <mxPoint x="510" y="850" as="targetPoint" />
            <Array as="points">
              <mxPoint x="540" y="790" />
              <mxPoint x="510" y="960" />
            </Array>
          </mxGeometry>
        </mxCell>
        <mxCell id="V9fXNOHrXrLfAql_X_GS-210" value="Suppression" style="text;html=1;resizable=0;autosize=1;align=center;verticalAlign=middle;points=[];fillColor=none;strokeColor=none;rounded=0;labelBackgroundColor=none;" vertex="1" parent="1">
          <mxGeometry x="680" y="975" width="80" height="20" as="geometry" />
        </mxCell>
        <mxCell id="V9fXNOHrXrLfAql_X_GS-211" value="Modification" style="text;html=1;resizable=0;autosize=1;align=center;verticalAlign=middle;points=[];fillColor=none;strokeColor=none;rounded=0;labelBackgroundColor=none;" vertex="1" parent="1">
          <mxGeometry x="560" y="975" width="80" height="20" as="geometry" />
        </mxCell>
        <mxCell id="V9fXNOHrXrLfAql_X_GS-222" value="" style="curved=1;endArrow=none;html=1;rounded=0;exitX=0.537;exitY=1.019;exitDx=0;exitDy=0;exitPerimeter=0;" edge="1" parent="1">
          <mxGeometry width="50" height="50" relative="1" as="geometry">
            <mxPoint x="666.6599999999999" y="770.3799999999999" as="sourcePoint" />
            <mxPoint x="667" y="770" as="targetPoint" />
            <Array as="points" />
          </mxGeometry>
        </mxCell>
        <mxCell id="V9fXNOHrXrLfAql_X_GS-230" value="" style="endArrow=classic;html=1;rounded=0;fillColor=#dae8fc;strokeColor=#6c8ebf;" edge="1" parent="1">
          <mxGeometry width="50" height="50" relative="1" as="geometry">
            <mxPoint x="580" y="640" as="sourcePoint" />
            <mxPoint x="550" y="640" as="targetPoint" />
          </mxGeometry>
        </mxCell>
        <mxCell id="V9fXNOHrXrLfAql_X_GS-231" value="" style="endArrow=classic;html=1;rounded=0;fillColor=#dae8fc;strokeColor=#6c8ebf;" edge="1" parent="1" source="V9fXNOHrXrLfAql_X_GS-212">
          <mxGeometry width="50" height="50" relative="1" as="geometry">
            <mxPoint x="816.79" y="640.06" as="sourcePoint" />
            <mxPoint x="800" y="640" as="targetPoint" />
          </mxGeometry>
        </mxCell>
        <mxCell id="V9fXNOHrXrLfAql_X_GS-235" value="- Checkbox cochée&lt;br&gt;- Progress Bar réinitialisée&lt;br&gt;" style="text;html=1;resizable=0;autosize=1;align=left;verticalAlign=middle;points=[];fillColor=#f5f5f5;strokeColor=#666666;rounded=0;labelBackgroundColor=none;labelBorderColor=none;fontColor=#333333;" vertex="1" parent="1">
          <mxGeometry x="390" y="630" width="160" height="30" as="geometry" />
        </mxCell>
        <mxCell id="V9fXNOHrXrLfAql_X_GS-236" value="- Element Supprimé en BDD&lt;br&gt;- Element Supprimé dans la liste" style="text;html=1;resizable=0;autosize=1;align=left;verticalAlign=middle;points=[];fillColor=#f5f5f5;strokeColor=#666666;rounded=0;labelBackgroundColor=none;labelBorderColor=none;fontColor=#333333;" vertex="1" parent="1">
          <mxGeometry x="590" y="1030" width="190" height="30" as="geometry" />
        </mxCell>
        <mxCell id="V9fXNOHrXrLfAql_X_GS-237" value="" style="endArrow=classic;html=1;rounded=0;exitX=0.507;exitY=0.874;exitDx=0;exitDy=0;exitPerimeter=0;fillColor=#dae8fc;strokeColor=#6c8ebf;" edge="1" parent="1" source="V9fXNOHrXrLfAql_X_GS-210">
          <mxGeometry width="50" height="50" relative="1" as="geometry">
            <mxPoint x="660" y="1020" as="sourcePoint" />
            <mxPoint x="720" y="1030" as="targetPoint" />
          </mxGeometry>
        </mxCell>
        <mxCell id="V9fXNOHrXrLfAql_X_GS-242" value="" style="swimlane;startSize=0;labelBackgroundColor=#A9C4EB;swimlaneFillColor=default;" vertex="1" parent="1">
          <mxGeometry x="800" y="600" width="200" height="360" as="geometry" />
        </mxCell>
        <mxCell id="V9fXNOHrXrLfAql_X_GS-266" value="&amp;nbsp; &amp;nbsp; &amp;nbsp; Plante 5 : Progress Bar&amp;nbsp; &amp;nbsp; &amp;nbsp; &amp;nbsp;" style="text;html=1;resizable=0;autosize=1;align=center;verticalAlign=middle;points=[];fillColor=#d5e8d4;strokeColor=#82b366;rounded=0;fontStyle=2;labelBackgroundColor=none;" vertex="1" parent="V9fXNOHrXrLfAql_X_GS-242">
          <mxGeometry x="10" y="150" width="180" height="20" as="geometry" />
        </mxCell>
        <mxCell id="V9fXNOHrXrLfAql_X_GS-243" value="&amp;nbsp; &amp;nbsp; &amp;nbsp; Plante 4 : Progress Bar&amp;nbsp; &amp;nbsp; &amp;nbsp; &amp;nbsp;" style="text;html=1;resizable=0;autosize=1;align=center;verticalAlign=middle;points=[];fillColor=#d5e8d4;strokeColor=#82b366;rounded=0;fontStyle=2;labelBackgroundColor=none;" vertex="1" parent="V9fXNOHrXrLfAql_X_GS-242">
          <mxGeometry x="10" y="120" width="180" height="20" as="geometry" />
        </mxCell>
        <mxCell id="V9fXNOHrXrLfAql_X_GS-244" value="&amp;nbsp; &amp;nbsp; &amp;nbsp; Plante 3 : Progress Bar&amp;nbsp; &amp;nbsp; &amp;nbsp; &amp;nbsp;" style="text;html=1;resizable=0;autosize=1;align=center;verticalAlign=middle;points=[];fillColor=#d5e8d4;strokeColor=#82b366;rounded=0;fontStyle=2;labelBackgroundColor=none;" vertex="1" parent="V9fXNOHrXrLfAql_X_GS-242">
          <mxGeometry x="10" y="90" width="180" height="20" as="geometry" />
        </mxCell>
        <mxCell id="V9fXNOHrXrLfAql_X_GS-245" value="&amp;nbsp; &amp;nbsp; &amp;nbsp; Plante 2 : Progress Bar&amp;nbsp; &amp;nbsp; &amp;nbsp; &amp;nbsp;" style="text;html=1;resizable=0;autosize=1;align=center;verticalAlign=middle;points=[];fillColor=#d5e8d4;strokeColor=#82b366;rounded=0;fontStyle=2;labelBackgroundColor=none;" vertex="1" parent="V9fXNOHrXrLfAql_X_GS-242">
          <mxGeometry x="10" y="60" width="180" height="20" as="geometry" />
        </mxCell>
        <mxCell id="V9fXNOHrXrLfAql_X_GS-246" value="" style="rounded=0;whiteSpace=wrap;html=1;" vertex="1" parent="V9fXNOHrXrLfAql_X_GS-242">
          <mxGeometry width="200" height="20" as="geometry" />
        </mxCell>
        <mxCell id="V9fXNOHrXrLfAql_X_GS-247" value="" style="rounded=0;whiteSpace=wrap;html=1;" vertex="1" parent="V9fXNOHrXrLfAql_X_GS-242">
          <mxGeometry y="330" width="200" height="30" as="geometry" />
        </mxCell>
        <mxCell id="V9fXNOHrXrLfAql_X_GS-248" value="&amp;nbsp; &amp;nbsp; &amp;nbsp; Plante 1 : Progress Bar&amp;nbsp; &amp;nbsp; &amp;nbsp; &amp;nbsp;" style="text;html=1;resizable=0;autosize=1;align=center;verticalAlign=middle;points=[];fillColor=#d5e8d4;strokeColor=#82b366;rounded=0;fontStyle=2;labelBackgroundColor=none;" vertex="1" parent="V9fXNOHrXrLfAql_X_GS-242">
          <mxGeometry x="10" y="30" width="180" height="20" as="geometry" />
        </mxCell>
        <mxCell id="V9fXNOHrXrLfAql_X_GS-249" value="Home" style="text;html=1;resizable=0;autosize=1;align=center;verticalAlign=middle;points=[];fillColor=none;strokeColor=none;rounded=0;labelBackgroundColor=none;" vertex="1" parent="V9fXNOHrXrLfAql_X_GS-242">
          <mxGeometry x="75" y="335" width="50" height="20" as="geometry" />
        </mxCell>
        <mxCell id="V9fXNOHrXrLfAql_X_GS-250" value="Ajout" style="text;html=1;resizable=0;autosize=1;align=center;verticalAlign=middle;points=[];fillColor=none;strokeColor=none;rounded=0;labelBackgroundColor=none;" vertex="1" parent="V9fXNOHrXrLfAql_X_GS-242">
          <mxGeometry x="10" y="335" width="40" height="20" as="geometry" />
        </mxCell>
        <mxCell id="V9fXNOHrXrLfAql_X_GS-251" value="Suppression" style="text;html=1;resizable=0;autosize=1;align=center;verticalAlign=middle;points=[];fillColor=none;strokeColor=none;rounded=0;labelBackgroundColor=none;" vertex="1" parent="V9fXNOHrXrLfAql_X_GS-242">
          <mxGeometry x="120" y="335" width="80" height="20" as="geometry" />
        </mxCell>
        <mxCell id="V9fXNOHrXrLfAql_X_GS-252" value="i" style="text;html=1;resizable=0;autosize=1;align=center;verticalAlign=middle;points=[];fillColor=#e1d5e7;strokeColor=#9673a6;rounded=0;labelBackgroundColor=none;" vertex="1" parent="V9fXNOHrXrLfAql_X_GS-242">
          <mxGeometry x="170" y="30" width="20" height="20" as="geometry" />
        </mxCell>
        <mxCell id="V9fXNOHrXrLfAql_X_GS-253" value="i" style="text;html=1;resizable=0;autosize=1;align=center;verticalAlign=middle;points=[];fillColor=#e1d5e7;strokeColor=#9673a6;rounded=0;labelBackgroundColor=none;" vertex="1" parent="V9fXNOHrXrLfAql_X_GS-242">
          <mxGeometry x="170" y="60" width="20" height="20" as="geometry" />
        </mxCell>
        <mxCell id="V9fXNOHrXrLfAql_X_GS-254" value="i" style="text;html=1;resizable=0;autosize=1;align=center;verticalAlign=middle;points=[];fillColor=#e1d5e7;strokeColor=#9673a6;rounded=0;labelBackgroundColor=none;" vertex="1" parent="V9fXNOHrXrLfAql_X_GS-242">
          <mxGeometry x="170" y="90" width="20" height="20" as="geometry" />
        </mxCell>
        <mxCell id="V9fXNOHrXrLfAql_X_GS-255" value="i" style="text;html=1;resizable=0;autosize=1;align=center;verticalAlign=middle;points=[];fillColor=#e1d5e7;strokeColor=#9673a6;rounded=0;labelBackgroundColor=none;" vertex="1" parent="V9fXNOHrXrLfAql_X_GS-242">
          <mxGeometry x="170" y="120" width="20" height="20" as="geometry" />
        </mxCell>
        <mxCell id="V9fXNOHrXrLfAql_X_GS-256" value="i" style="text;html=1;resizable=0;autosize=1;align=center;verticalAlign=middle;points=[];fillColor=#e1d5e7;strokeColor=#9673a6;rounded=0;labelBackgroundColor=none;" vertex="1" parent="V9fXNOHrXrLfAql_X_GS-242">
          <mxGeometry x="170" y="150" width="20" height="20" as="geometry" />
        </mxCell>
        <mxCell id="V9fXNOHrXrLfAql_X_GS-257" value="" style="dashed=0;labelPosition=right;align=left;shape=mxgraph.gmdl.checkbox;strokeColor=#666666;fillColor=none;strokeWidth=2;aspect=fixed;sketch=0;rounded=0;labelBackgroundColor=none;" vertex="1" parent="V9fXNOHrXrLfAql_X_GS-242">
          <mxGeometry x="20" y="35" width="10" height="10" as="geometry" />
        </mxCell>
        <mxCell id="V9fXNOHrXrLfAql_X_GS-258" value="" style="dashed=0;labelPosition=right;align=left;shape=mxgraph.gmdl.checkbox;strokeColor=#666666;fillColor=none;strokeWidth=2;aspect=fixed;sketch=0;rounded=0;labelBackgroundColor=none;" vertex="1" parent="V9fXNOHrXrLfAql_X_GS-242">
          <mxGeometry x="20" y="65" width="10" height="10" as="geometry" />
        </mxCell>
        <mxCell id="V9fXNOHrXrLfAql_X_GS-259" value="" style="dashed=0;labelPosition=right;align=left;shape=mxgraph.gmdl.checkbox;strokeColor=#666666;fillColor=none;strokeWidth=2;aspect=fixed;sketch=0;rounded=0;labelBackgroundColor=none;" vertex="1" parent="V9fXNOHrXrLfAql_X_GS-242">
          <mxGeometry x="20" y="95" width="10" height="10" as="geometry" />
        </mxCell>
        <mxCell id="V9fXNOHrXrLfAql_X_GS-260" value="" style="dashed=0;labelPosition=right;align=left;shape=mxgraph.gmdl.checkbox;strokeColor=#666666;fillColor=none;strokeWidth=2;aspect=fixed;sketch=0;rounded=0;labelBackgroundColor=none;" vertex="1" parent="V9fXNOHrXrLfAql_X_GS-242">
          <mxGeometry x="20" y="125" width="10" height="10" as="geometry" />
        </mxCell>
        <mxCell id="V9fXNOHrXrLfAql_X_GS-261" value="" style="dashed=0;labelPosition=right;align=left;shape=mxgraph.gmdl.checkbox;strokeColor=none;fillColor=#676767;strokeWidth=2;aspect=fixed;sketch=0;rounded=0;labelBackgroundColor=none;" vertex="1" parent="V9fXNOHrXrLfAql_X_GS-242">
          <mxGeometry x="20" y="155" width="10" height="10" as="geometry" />
        </mxCell>
        <mxCell id="V9fXNOHrXrLfAql_X_GS-267" value="" style="swimlane;startSize=0;rounded=0;glass=0;labelBackgroundColor=#A9C4EB;labelBorderColor=none;fillColor=default;gradientColor=none;opacity=50;swimlaneFillColor=#D4D4D4;" vertex="1" parent="V9fXNOHrXrLfAql_X_GS-242">
          <mxGeometry width="200" height="360" as="geometry" />
        </mxCell>
        <mxCell id="V9fXNOHrXrLfAql_X_GS-268" value="" style="swimlane;startSize=0;rounded=0;glass=0;labelBackgroundColor=#A9C4EB;labelBorderColor=none;fillColor=default;gradientColor=none;swimlaneFillColor=default;" vertex="1" parent="V9fXNOHrXrLfAql_X_GS-267">
          <mxGeometry x="20" y="35" width="160" height="245" as="geometry" />
        </mxCell>
        <mxCell id="V9fXNOHrXrLfAql_X_GS-271" value="" style="dashed=0;aspect=fixed;verticalLabelPosition=bottom;verticalAlign=top;align=center;shape=mxgraph.gmdl.x;strokeColor=#737373;fillColor=#737373;shadow=0;strokeWidth=2;sketch=0;rounded=0;glass=0;labelBackgroundColor=#A9C4EB;labelBorderColor=none;" vertex="1" parent="V9fXNOHrXrLfAql_X_GS-268">
          <mxGeometry x="134" y="9" width="16" height="16" as="geometry" />
        </mxCell>
        <mxCell id="V9fXNOHrXrLfAql_X_GS-272" value="Nom Plante" style="text;html=1;resizable=0;autosize=1;align=center;verticalAlign=middle;points=[];fillColor=#d5e8d4;strokeColor=#82b366;rounded=0;fontStyle=2;labelBackgroundColor=none;" vertex="1" parent="V9fXNOHrXrLfAql_X_GS-268">
          <mxGeometry x="10" y="155" width="80" height="20" as="geometry" />
        </mxCell>
        <mxCell id="V9fXNOHrXrLfAql_X_GS-298" value="Arrosage Plante" style="text;html=1;resizable=0;autosize=1;align=center;verticalAlign=middle;points=[];fillColor=#d5e8d4;strokeColor=#82b366;rounded=0;fontStyle=2;labelBackgroundColor=none;" vertex="1" parent="V9fXNOHrXrLfAql_X_GS-268">
          <mxGeometry x="10" y="215" width="100" height="20" as="geometry" />
        </mxCell>
        <mxCell id="V9fXNOHrXrLfAql_X_GS-299" value="Image" style="text;html=1;resizable=0;autosize=1;align=center;verticalAlign=middle;points=[];fillColor=#f8cecc;strokeColor=#b85450;rounded=0;rotation=45;" vertex="1" parent="V9fXNOHrXrLfAql_X_GS-268">
          <mxGeometry x="55" y="55" width="50" height="20" as="geometry" />
        </mxCell>
        <mxCell id="V9fXNOHrXrLfAql_X_GS-327" value="Santé Plante" style="text;html=1;resizable=0;autosize=1;align=center;verticalAlign=middle;points=[];fillColor=#d5e8d4;strokeColor=#82b366;rounded=0;fontStyle=2;labelBackgroundColor=none;" vertex="1" parent="V9fXNOHrXrLfAql_X_GS-268">
          <mxGeometry x="10" y="185" width="80" height="20" as="geometry" />
        </mxCell>
        <mxCell id="V9fXNOHrXrLfAql_X_GS-328" value="" style="swimlane;startSize=0;labelBackgroundColor=#A9C4EB;swimlaneFillColor=default;" vertex="1" parent="1">
          <mxGeometry x="305" y="680" width="200" height="360" as="geometry" />
        </mxCell>
        <mxCell id="V9fXNOHrXrLfAql_X_GS-329" value="&amp;nbsp; &amp;nbsp; &amp;nbsp; Plante 5 : Progress Bar&amp;nbsp; &amp;nbsp; &amp;nbsp; &amp;nbsp;" style="text;html=1;resizable=0;autosize=1;align=center;verticalAlign=middle;points=[];fillColor=#d5e8d4;strokeColor=#82b366;rounded=0;fontStyle=2;labelBackgroundColor=none;" vertex="1" parent="V9fXNOHrXrLfAql_X_GS-328">
          <mxGeometry x="10" y="150" width="180" height="20" as="geometry" />
        </mxCell>
        <mxCell id="V9fXNOHrXrLfAql_X_GS-330" value="&amp;nbsp; &amp;nbsp; &amp;nbsp; Plante 4 : Progress Bar&amp;nbsp; &amp;nbsp; &amp;nbsp; &amp;nbsp;" style="text;html=1;resizable=0;autosize=1;align=center;verticalAlign=middle;points=[];fillColor=#d5e8d4;strokeColor=#82b366;rounded=0;fontStyle=2;labelBackgroundColor=none;" vertex="1" parent="V9fXNOHrXrLfAql_X_GS-328">
          <mxGeometry x="10" y="120" width="180" height="20" as="geometry" />
        </mxCell>
        <mxCell id="V9fXNOHrXrLfAql_X_GS-331" value="&amp;nbsp; &amp;nbsp; &amp;nbsp; Plante 3 : Progress Bar&amp;nbsp; &amp;nbsp; &amp;nbsp; &amp;nbsp;" style="text;html=1;resizable=0;autosize=1;align=center;verticalAlign=middle;points=[];fillColor=#d5e8d4;strokeColor=#82b366;rounded=0;fontStyle=2;labelBackgroundColor=none;" vertex="1" parent="V9fXNOHrXrLfAql_X_GS-328">
          <mxGeometry x="10" y="90" width="180" height="20" as="geometry" />
        </mxCell>
        <mxCell id="V9fXNOHrXrLfAql_X_GS-332" value="&amp;nbsp; &amp;nbsp; &amp;nbsp; Plante 2 : Progress Bar&amp;nbsp; &amp;nbsp; &amp;nbsp; &amp;nbsp;" style="text;html=1;resizable=0;autosize=1;align=center;verticalAlign=middle;points=[];fillColor=#d5e8d4;strokeColor=#82b366;rounded=0;fontStyle=2;labelBackgroundColor=none;" vertex="1" parent="V9fXNOHrXrLfAql_X_GS-328">
          <mxGeometry x="10" y="60" width="180" height="20" as="geometry" />
        </mxCell>
        <mxCell id="V9fXNOHrXrLfAql_X_GS-333" value="" style="rounded=0;whiteSpace=wrap;html=1;" vertex="1" parent="V9fXNOHrXrLfAql_X_GS-328">
          <mxGeometry width="200" height="20" as="geometry" />
        </mxCell>
        <mxCell id="V9fXNOHrXrLfAql_X_GS-334" value="" style="rounded=0;whiteSpace=wrap;html=1;" vertex="1" parent="V9fXNOHrXrLfAql_X_GS-328">
          <mxGeometry y="330" width="200" height="30" as="geometry" />
        </mxCell>
        <mxCell id="V9fXNOHrXrLfAql_X_GS-335" value="&amp;nbsp; &amp;nbsp; &amp;nbsp; Plante 1 : Progress Bar&amp;nbsp; &amp;nbsp; &amp;nbsp; &amp;nbsp;" style="text;html=1;resizable=0;autosize=1;align=center;verticalAlign=middle;points=[];fillColor=#d5e8d4;strokeColor=#82b366;rounded=0;fontStyle=2;labelBackgroundColor=none;" vertex="1" parent="V9fXNOHrXrLfAql_X_GS-328">
          <mxGeometry x="10" y="30" width="180" height="20" as="geometry" />
        </mxCell>
        <mxCell id="V9fXNOHrXrLfAql_X_GS-336" value="Home" style="text;html=1;resizable=0;autosize=1;align=center;verticalAlign=middle;points=[];fillColor=none;strokeColor=none;rounded=0;labelBackgroundColor=none;" vertex="1" parent="V9fXNOHrXrLfAql_X_GS-328">
          <mxGeometry x="75" y="335" width="50" height="20" as="geometry" />
        </mxCell>
        <mxCell id="V9fXNOHrXrLfAql_X_GS-337" value="Ajout" style="text;html=1;resizable=0;autosize=1;align=center;verticalAlign=middle;points=[];fillColor=none;strokeColor=none;rounded=0;labelBackgroundColor=none;" vertex="1" parent="V9fXNOHrXrLfAql_X_GS-328">
          <mxGeometry x="10" y="335" width="40" height="20" as="geometry" />
        </mxCell>
        <mxCell id="V9fXNOHrXrLfAql_X_GS-338" value="Suppression" style="text;html=1;resizable=0;autosize=1;align=center;verticalAlign=middle;points=[];fillColor=none;strokeColor=none;rounded=0;labelBackgroundColor=none;" vertex="1" parent="V9fXNOHrXrLfAql_X_GS-328">
          <mxGeometry x="120" y="335" width="80" height="20" as="geometry" />
        </mxCell>
        <mxCell id="V9fXNOHrXrLfAql_X_GS-339" value="i" style="text;html=1;resizable=0;autosize=1;align=center;verticalAlign=middle;points=[];fillColor=#e1d5e7;strokeColor=#9673a6;rounded=0;labelBackgroundColor=none;" vertex="1" parent="V9fXNOHrXrLfAql_X_GS-328">
          <mxGeometry x="170" y="30" width="20" height="20" as="geometry" />
        </mxCell>
        <mxCell id="V9fXNOHrXrLfAql_X_GS-340" value="i" style="text;html=1;resizable=0;autosize=1;align=center;verticalAlign=middle;points=[];fillColor=#e1d5e7;strokeColor=#9673a6;rounded=0;labelBackgroundColor=none;" vertex="1" parent="V9fXNOHrXrLfAql_X_GS-328">
          <mxGeometry x="170" y="60" width="20" height="20" as="geometry" />
        </mxCell>
        <mxCell id="V9fXNOHrXrLfAql_X_GS-341" value="i" style="text;html=1;resizable=0;autosize=1;align=center;verticalAlign=middle;points=[];fillColor=#e1d5e7;strokeColor=#9673a6;rounded=0;labelBackgroundColor=none;" vertex="1" parent="V9fXNOHrXrLfAql_X_GS-328">
          <mxGeometry x="170" y="90" width="20" height="20" as="geometry" />
        </mxCell>
        <mxCell id="V9fXNOHrXrLfAql_X_GS-342" value="i" style="text;html=1;resizable=0;autosize=1;align=center;verticalAlign=middle;points=[];fillColor=#e1d5e7;strokeColor=#9673a6;rounded=0;labelBackgroundColor=none;" vertex="1" parent="V9fXNOHrXrLfAql_X_GS-328">
          <mxGeometry x="170" y="120" width="20" height="20" as="geometry" />
        </mxCell>
        <mxCell id="V9fXNOHrXrLfAql_X_GS-343" value="i" style="text;html=1;resizable=0;autosize=1;align=center;verticalAlign=middle;points=[];fillColor=#e1d5e7;strokeColor=#9673a6;rounded=0;labelBackgroundColor=none;" vertex="1" parent="V9fXNOHrXrLfAql_X_GS-328">
          <mxGeometry x="170" y="150" width="20" height="20" as="geometry" />
        </mxCell>
        <mxCell id="V9fXNOHrXrLfAql_X_GS-344" value="" style="dashed=0;labelPosition=right;align=left;shape=mxgraph.gmdl.checkbox;strokeColor=#666666;fillColor=none;strokeWidth=2;aspect=fixed;sketch=0;rounded=0;labelBackgroundColor=none;" vertex="1" parent="V9fXNOHrXrLfAql_X_GS-328">
          <mxGeometry x="20" y="35" width="10" height="10" as="geometry" />
        </mxCell>
        <mxCell id="V9fXNOHrXrLfAql_X_GS-345" value="" style="dashed=0;labelPosition=right;align=left;shape=mxgraph.gmdl.checkbox;strokeColor=#666666;fillColor=none;strokeWidth=2;aspect=fixed;sketch=0;rounded=0;labelBackgroundColor=none;" vertex="1" parent="V9fXNOHrXrLfAql_X_GS-328">
          <mxGeometry x="20" y="65" width="10" height="10" as="geometry" />
        </mxCell>
        <mxCell id="V9fXNOHrXrLfAql_X_GS-346" value="" style="dashed=0;labelPosition=right;align=left;shape=mxgraph.gmdl.checkbox;strokeColor=#666666;fillColor=none;strokeWidth=2;aspect=fixed;sketch=0;rounded=0;labelBackgroundColor=none;" vertex="1" parent="V9fXNOHrXrLfAql_X_GS-328">
          <mxGeometry x="20" y="95" width="10" height="10" as="geometry" />
        </mxCell>
        <mxCell id="V9fXNOHrXrLfAql_X_GS-347" value="" style="dashed=0;labelPosition=right;align=left;shape=mxgraph.gmdl.checkbox;strokeColor=#666666;fillColor=none;strokeWidth=2;aspect=fixed;sketch=0;rounded=0;labelBackgroundColor=none;" vertex="1" parent="V9fXNOHrXrLfAql_X_GS-328">
          <mxGeometry x="20" y="125" width="10" height="10" as="geometry" />
        </mxCell>
        <mxCell id="V9fXNOHrXrLfAql_X_GS-348" value="" style="dashed=0;labelPosition=right;align=left;shape=mxgraph.gmdl.checkbox;strokeColor=none;fillColor=#676767;strokeWidth=2;aspect=fixed;sketch=0;rounded=0;labelBackgroundColor=none;" vertex="1" parent="V9fXNOHrXrLfAql_X_GS-328">
          <mxGeometry x="20" y="155" width="10" height="10" as="geometry" />
        </mxCell>
        <mxCell id="V9fXNOHrXrLfAql_X_GS-349" value="" style="swimlane;startSize=0;rounded=0;glass=0;labelBackgroundColor=#A9C4EB;labelBorderColor=none;fillColor=default;gradientColor=none;opacity=50;swimlaneFillColor=#D4D4D4;" vertex="1" parent="V9fXNOHrXrLfAql_X_GS-328">
          <mxGeometry width="200" height="360" as="geometry" />
        </mxCell>
        <mxCell id="V9fXNOHrXrLfAql_X_GS-350" value="" style="swimlane;startSize=0;rounded=0;glass=0;labelBackgroundColor=#A9C4EB;labelBorderColor=none;fillColor=default;gradientColor=none;swimlaneFillColor=default;" vertex="1" parent="V9fXNOHrXrLfAql_X_GS-349">
          <mxGeometry x="20" y="35" width="160" height="245" as="geometry" />
        </mxCell>
        <mxCell id="V9fXNOHrXrLfAql_X_GS-351" value="" style="dashed=0;aspect=fixed;verticalLabelPosition=bottom;verticalAlign=top;align=center;shape=mxgraph.gmdl.x;strokeColor=#737373;fillColor=#737373;shadow=0;strokeWidth=2;sketch=0;rounded=0;glass=0;labelBackgroundColor=#A9C4EB;labelBorderColor=none;" vertex="1" parent="V9fXNOHrXrLfAql_X_GS-350">
          <mxGeometry x="134" y="9" width="16" height="16" as="geometry" />
        </mxCell>
        <mxCell id="V9fXNOHrXrLfAql_X_GS-352" value="Nom Plante" style="text;html=1;resizable=0;autosize=1;align=center;verticalAlign=middle;points=[];fillColor=#d5e8d4;strokeColor=#82b366;rounded=0;fontStyle=2;labelBackgroundColor=none;" vertex="1" parent="V9fXNOHrXrLfAql_X_GS-350">
          <mxGeometry x="10" y="155" width="80" height="20" as="geometry" />
        </mxCell>
        <mxCell id="V9fXNOHrXrLfAql_X_GS-353" value="Arrosage Plante" style="text;html=1;resizable=0;autosize=1;align=center;verticalAlign=middle;points=[];fillColor=#d5e8d4;strokeColor=#82b366;rounded=0;fontStyle=2;labelBackgroundColor=none;" vertex="1" parent="V9fXNOHrXrLfAql_X_GS-350">
          <mxGeometry x="10" y="215" width="100" height="20" as="geometry" />
        </mxCell>
        <mxCell id="V9fXNOHrXrLfAql_X_GS-354" value="Image" style="text;html=1;resizable=0;autosize=1;align=center;verticalAlign=middle;points=[];fillColor=#f8cecc;strokeColor=#b85450;rounded=0;rotation=45;" vertex="1" parent="V9fXNOHrXrLfAql_X_GS-350">
          <mxGeometry x="55" y="55" width="50" height="20" as="geometry" />
        </mxCell>
        <mxCell id="V9fXNOHrXrLfAql_X_GS-355" value="Santé Plante" style="text;html=1;resizable=0;autosize=1;align=center;verticalAlign=middle;points=[];fillColor=#d5e8d4;strokeColor=#82b366;rounded=0;fontStyle=2;labelBackgroundColor=none;" vertex="1" parent="V9fXNOHrXrLfAql_X_GS-350">
          <mxGeometry x="10" y="185" width="80" height="20" as="geometry" />
        </mxCell>
        <mxCell id="V9fXNOHrXrLfAql_X_GS-356" value="" style="endArrow=classic;html=1;rounded=0;fillColor=#dae8fc;strokeColor=#6c8ebf;entryX=0.996;entryY=0.725;entryDx=0;entryDy=0;entryPerimeter=0;exitX=-0.041;exitY=0.307;exitDx=0;exitDy=0;exitPerimeter=0;" edge="1" parent="1" source="V9fXNOHrXrLfAql_X_GS-207" target="V9fXNOHrXrLfAql_X_GS-349">
          <mxGeometry width="50" height="50" relative="1" as="geometry">
            <mxPoint x="520" y="950" as="sourcePoint" />
            <mxPoint x="570" y="950" as="targetPoint" />
          </mxGeometry>
        </mxCell>
        <mxCell id="V9fXNOHrXrLfAql_X_GS-357" value="" style="curved=1;endArrow=classic;html=1;rounded=0;exitX=-0.004;exitY=0.481;exitDx=0;exitDy=0;exitPerimeter=0;entryX=0.5;entryY=1;entryDx=0;entryDy=0;startArrow=none;fillColor=#dae8fc;strokeColor=#6c8ebf;" edge="1" parent="1" target="V9fXNOHrXrLfAql_X_GS-349">
          <mxGeometry width="50" height="50" relative="1" as="geometry">
            <mxPoint x="599.28" y="995.0000000000001" as="sourcePoint" />
            <mxPoint x="590" y="1220.38" as="targetPoint" />
            <Array as="points">
              <mxPoint x="540" y="1195.38" />
            </Array>
          </mxGeometry>
        </mxCell>
        <mxCell id="V9fXNOHrXrLfAql_X_GS-359" value="" style="endArrow=classic;html=1;rounded=0;exitX=0.906;exitY=0.993;exitDx=0;exitDy=0;exitPerimeter=0;fillColor=#dae8fc;strokeColor=#6c8ebf;" edge="1" parent="1" source="V9fXNOHrXrLfAql_X_GS-2">
          <mxGeometry width="50" height="50" relative="1" as="geometry">
            <mxPoint x="730.56" y="1002.4800000000002" as="sourcePoint" />
            <mxPoint x="850" y="1020" as="targetPoint" />
          </mxGeometry>
        </mxCell>
        <mxCell id="V9fXNOHrXrLfAql_X_GS-360" value="" style="swimlane;startSize=0;labelBackgroundColor=#A9C4EB;swimlaneFillColor=default;" vertex="1" parent="1">
          <mxGeometry x="850" y="980" width="200" height="360" as="geometry" />
        </mxCell>
        <mxCell id="V9fXNOHrXrLfAql_X_GS-361" value="&amp;nbsp; &amp;nbsp; &amp;nbsp; Plante 5 : Progress Bar&amp;nbsp; &amp;nbsp; &amp;nbsp; &amp;nbsp;" style="text;html=1;resizable=0;autosize=1;align=center;verticalAlign=middle;points=[];fillColor=#d5e8d4;strokeColor=#82b366;rounded=0;fontStyle=2;labelBackgroundColor=none;" vertex="1" parent="V9fXNOHrXrLfAql_X_GS-360">
          <mxGeometry x="10" y="150" width="180" height="20" as="geometry" />
        </mxCell>
        <mxCell id="V9fXNOHrXrLfAql_X_GS-362" value="&amp;nbsp; &amp;nbsp; &amp;nbsp; Plante 4 : Progress Bar&amp;nbsp; &amp;nbsp; &amp;nbsp; &amp;nbsp;" style="text;html=1;resizable=0;autosize=1;align=center;verticalAlign=middle;points=[];fillColor=#d5e8d4;strokeColor=#82b366;rounded=0;fontStyle=2;labelBackgroundColor=none;" vertex="1" parent="V9fXNOHrXrLfAql_X_GS-360">
          <mxGeometry x="10" y="120" width="180" height="20" as="geometry" />
        </mxCell>
        <mxCell id="V9fXNOHrXrLfAql_X_GS-363" value="&amp;nbsp; &amp;nbsp; &amp;nbsp; Plante 3 : Progress Bar&amp;nbsp; &amp;nbsp; &amp;nbsp; &amp;nbsp;" style="text;html=1;resizable=0;autosize=1;align=center;verticalAlign=middle;points=[];fillColor=#d5e8d4;strokeColor=#82b366;rounded=0;fontStyle=2;labelBackgroundColor=none;" vertex="1" parent="V9fXNOHrXrLfAql_X_GS-360">
          <mxGeometry x="10" y="90" width="180" height="20" as="geometry" />
        </mxCell>
        <mxCell id="V9fXNOHrXrLfAql_X_GS-364" value="&amp;nbsp; &amp;nbsp; &amp;nbsp; Plante 2 : Progress Bar&amp;nbsp; &amp;nbsp; &amp;nbsp; &amp;nbsp;" style="text;html=1;resizable=0;autosize=1;align=center;verticalAlign=middle;points=[];fillColor=#d5e8d4;strokeColor=#82b366;rounded=0;fontStyle=2;labelBackgroundColor=none;" vertex="1" parent="V9fXNOHrXrLfAql_X_GS-360">
          <mxGeometry x="10" y="60" width="180" height="20" as="geometry" />
        </mxCell>
        <mxCell id="V9fXNOHrXrLfAql_X_GS-365" value="" style="rounded=0;whiteSpace=wrap;html=1;" vertex="1" parent="V9fXNOHrXrLfAql_X_GS-360">
          <mxGeometry width="200" height="20" as="geometry" />
        </mxCell>
        <mxCell id="V9fXNOHrXrLfAql_X_GS-366" value="" style="rounded=0;whiteSpace=wrap;html=1;" vertex="1" parent="V9fXNOHrXrLfAql_X_GS-360">
          <mxGeometry y="330" width="200" height="30" as="geometry" />
        </mxCell>
        <mxCell id="V9fXNOHrXrLfAql_X_GS-367" value="&amp;nbsp; &amp;nbsp; &amp;nbsp; Plante 1 : Progress Bar&amp;nbsp; &amp;nbsp; &amp;nbsp; &amp;nbsp;" style="text;html=1;resizable=0;autosize=1;align=center;verticalAlign=middle;points=[];fillColor=#d5e8d4;strokeColor=#82b366;rounded=0;fontStyle=2;labelBackgroundColor=none;" vertex="1" parent="V9fXNOHrXrLfAql_X_GS-360">
          <mxGeometry x="10" y="30" width="180" height="20" as="geometry" />
        </mxCell>
        <mxCell id="V9fXNOHrXrLfAql_X_GS-368" value="Home" style="text;html=1;resizable=0;autosize=1;align=center;verticalAlign=middle;points=[];fillColor=none;strokeColor=none;rounded=0;labelBackgroundColor=none;" vertex="1" parent="V9fXNOHrXrLfAql_X_GS-360">
          <mxGeometry x="75" y="335" width="50" height="20" as="geometry" />
        </mxCell>
        <mxCell id="V9fXNOHrXrLfAql_X_GS-369" value="Ajout" style="text;html=1;resizable=0;autosize=1;align=center;verticalAlign=middle;points=[];fillColor=none;strokeColor=none;rounded=0;labelBackgroundColor=none;" vertex="1" parent="V9fXNOHrXrLfAql_X_GS-360">
          <mxGeometry x="10" y="335" width="40" height="20" as="geometry" />
        </mxCell>
        <mxCell id="V9fXNOHrXrLfAql_X_GS-370" value="Suppression" style="text;html=1;resizable=0;autosize=1;align=center;verticalAlign=middle;points=[];fillColor=none;strokeColor=none;rounded=0;labelBackgroundColor=none;" vertex="1" parent="V9fXNOHrXrLfAql_X_GS-360">
          <mxGeometry x="120" y="335" width="80" height="20" as="geometry" />
        </mxCell>
        <mxCell id="V9fXNOHrXrLfAql_X_GS-371" value="i" style="text;html=1;resizable=0;autosize=1;align=center;verticalAlign=middle;points=[];fillColor=#e1d5e7;strokeColor=#9673a6;rounded=0;labelBackgroundColor=none;" vertex="1" parent="V9fXNOHrXrLfAql_X_GS-360">
          <mxGeometry x="170" y="30" width="20" height="20" as="geometry" />
        </mxCell>
        <mxCell id="V9fXNOHrXrLfAql_X_GS-372" value="i" style="text;html=1;resizable=0;autosize=1;align=center;verticalAlign=middle;points=[];fillColor=#e1d5e7;strokeColor=#9673a6;rounded=0;labelBackgroundColor=none;" vertex="1" parent="V9fXNOHrXrLfAql_X_GS-360">
          <mxGeometry x="170" y="60" width="20" height="20" as="geometry" />
        </mxCell>
        <mxCell id="V9fXNOHrXrLfAql_X_GS-373" value="i" style="text;html=1;resizable=0;autosize=1;align=center;verticalAlign=middle;points=[];fillColor=#e1d5e7;strokeColor=#9673a6;rounded=0;labelBackgroundColor=none;" vertex="1" parent="V9fXNOHrXrLfAql_X_GS-360">
          <mxGeometry x="170" y="90" width="20" height="20" as="geometry" />
        </mxCell>
        <mxCell id="V9fXNOHrXrLfAql_X_GS-374" value="i" style="text;html=1;resizable=0;autosize=1;align=center;verticalAlign=middle;points=[];fillColor=#e1d5e7;strokeColor=#9673a6;rounded=0;labelBackgroundColor=none;" vertex="1" parent="V9fXNOHrXrLfAql_X_GS-360">
          <mxGeometry x="170" y="120" width="20" height="20" as="geometry" />
        </mxCell>
        <mxCell id="V9fXNOHrXrLfAql_X_GS-375" value="i" style="text;html=1;resizable=0;autosize=1;align=center;verticalAlign=middle;points=[];fillColor=#e1d5e7;strokeColor=#9673a6;rounded=0;labelBackgroundColor=none;" vertex="1" parent="V9fXNOHrXrLfAql_X_GS-360">
          <mxGeometry x="170" y="150" width="20" height="20" as="geometry" />
        </mxCell>
        <mxCell id="V9fXNOHrXrLfAql_X_GS-376" value="" style="dashed=0;labelPosition=right;align=left;shape=mxgraph.gmdl.checkbox;strokeColor=#666666;fillColor=none;strokeWidth=2;aspect=fixed;sketch=0;rounded=0;labelBackgroundColor=none;" vertex="1" parent="V9fXNOHrXrLfAql_X_GS-360">
          <mxGeometry x="20" y="35" width="10" height="10" as="geometry" />
        </mxCell>
        <mxCell id="V9fXNOHrXrLfAql_X_GS-377" value="" style="dashed=0;labelPosition=right;align=left;shape=mxgraph.gmdl.checkbox;strokeColor=#666666;fillColor=none;strokeWidth=2;aspect=fixed;sketch=0;rounded=0;labelBackgroundColor=none;" vertex="1" parent="V9fXNOHrXrLfAql_X_GS-360">
          <mxGeometry x="20" y="65" width="10" height="10" as="geometry" />
        </mxCell>
        <mxCell id="V9fXNOHrXrLfAql_X_GS-378" value="" style="dashed=0;labelPosition=right;align=left;shape=mxgraph.gmdl.checkbox;strokeColor=#666666;fillColor=none;strokeWidth=2;aspect=fixed;sketch=0;rounded=0;labelBackgroundColor=none;" vertex="1" parent="V9fXNOHrXrLfAql_X_GS-360">
          <mxGeometry x="20" y="95" width="10" height="10" as="geometry" />
        </mxCell>
        <mxCell id="V9fXNOHrXrLfAql_X_GS-379" value="" style="dashed=0;labelPosition=right;align=left;shape=mxgraph.gmdl.checkbox;strokeColor=#666666;fillColor=none;strokeWidth=2;aspect=fixed;sketch=0;rounded=0;labelBackgroundColor=none;" vertex="1" parent="V9fXNOHrXrLfAql_X_GS-360">
          <mxGeometry x="20" y="125" width="10" height="10" as="geometry" />
        </mxCell>
        <mxCell id="V9fXNOHrXrLfAql_X_GS-380" value="" style="dashed=0;labelPosition=right;align=left;shape=mxgraph.gmdl.checkbox;strokeColor=none;fillColor=#676767;strokeWidth=2;aspect=fixed;sketch=0;rounded=0;labelBackgroundColor=none;" vertex="1" parent="V9fXNOHrXrLfAql_X_GS-360">
          <mxGeometry x="20" y="155" width="10" height="10" as="geometry" />
        </mxCell>
        <mxCell id="V9fXNOHrXrLfAql_X_GS-381" value="" style="swimlane;startSize=0;rounded=0;glass=0;labelBackgroundColor=#A9C4EB;labelBorderColor=none;fillColor=default;gradientColor=none;opacity=50;swimlaneFillColor=#D4D4D4;" vertex="1" parent="V9fXNOHrXrLfAql_X_GS-360">
          <mxGeometry width="200" height="360" as="geometry" />
        </mxCell>
        <mxCell id="V9fXNOHrXrLfAql_X_GS-382" value="" style="swimlane;startSize=0;rounded=0;glass=0;labelBackgroundColor=#A9C4EB;labelBorderColor=none;fillColor=default;gradientColor=none;swimlaneFillColor=default;" vertex="1" parent="V9fXNOHrXrLfAql_X_GS-381">
          <mxGeometry x="20" y="35" width="160" height="245" as="geometry" />
        </mxCell>
        <mxCell id="V9fXNOHrXrLfAql_X_GS-383" value="" style="dashed=0;aspect=fixed;verticalLabelPosition=bottom;verticalAlign=top;align=center;shape=mxgraph.gmdl.x;strokeColor=#737373;fillColor=#737373;shadow=0;strokeWidth=2;sketch=0;rounded=0;glass=0;labelBackgroundColor=#A9C4EB;labelBorderColor=none;" vertex="1" parent="V9fXNOHrXrLfAql_X_GS-382">
          <mxGeometry x="134" y="9" width="16" height="16" as="geometry" />
        </mxCell>
        <mxCell id="V9fXNOHrXrLfAql_X_GS-388" value="Plante 1&amp;nbsp; &amp;nbsp; &amp;nbsp; &amp;nbsp; &amp;nbsp; &amp;nbsp; &amp;nbsp; &amp;nbsp; &amp;nbsp; &amp;nbsp; &amp;nbsp; &amp;nbsp; &amp;nbsp;" style="text;html=1;resizable=0;autosize=1;align=center;verticalAlign=middle;points=[];fillColor=#d5e8d4;strokeColor=#82b366;rounded=0;fontStyle=2;labelBackgroundColor=none;" vertex="1" parent="V9fXNOHrXrLfAql_X_GS-382">
          <mxGeometry x="10" y="65" width="140" height="20" as="geometry" />
        </mxCell>
        <mxCell id="V9fXNOHrXrLfAql_X_GS-393" value="Supprimer tout&amp;nbsp; &amp;nbsp; &amp;nbsp; &amp;nbsp; &amp;nbsp; &amp;nbsp; &amp;nbsp;&amp;nbsp;" style="text;html=1;resizable=0;autosize=1;align=center;verticalAlign=middle;points=[];fillColor=#f8cecc;strokeColor=#b85450;rounded=0;fontStyle=2;labelBackgroundColor=none;" vertex="1" parent="V9fXNOHrXrLfAql_X_GS-382">
          <mxGeometry x="10" y="35" width="140" height="20" as="geometry" />
        </mxCell>
        <mxCell id="V9fXNOHrXrLfAql_X_GS-394" value="Plante 2&amp;nbsp; &amp;nbsp; &amp;nbsp; &amp;nbsp; &amp;nbsp; &amp;nbsp; &amp;nbsp; &amp;nbsp; &amp;nbsp; &amp;nbsp; &amp;nbsp; &amp;nbsp; &amp;nbsp;" style="text;html=1;resizable=0;autosize=1;align=center;verticalAlign=middle;points=[];fillColor=#d5e8d4;strokeColor=#82b366;rounded=0;fontStyle=2;labelBackgroundColor=none;" vertex="1" parent="V9fXNOHrXrLfAql_X_GS-382">
          <mxGeometry x="10" y="95" width="140" height="20" as="geometry" />
        </mxCell>
        <mxCell id="V9fXNOHrXrLfAql_X_GS-395" value="Plante 3&amp;nbsp; &amp;nbsp; &amp;nbsp; &amp;nbsp; &amp;nbsp; &amp;nbsp; &amp;nbsp; &amp;nbsp; &amp;nbsp; &amp;nbsp; &amp;nbsp; &amp;nbsp; &amp;nbsp;" style="text;html=1;resizable=0;autosize=1;align=center;verticalAlign=middle;points=[];fillColor=#d5e8d4;strokeColor=#82b366;rounded=0;fontStyle=2;labelBackgroundColor=none;" vertex="1" parent="V9fXNOHrXrLfAql_X_GS-382">
          <mxGeometry x="10" y="125" width="140" height="20" as="geometry" />
        </mxCell>
        <mxCell id="V9fXNOHrXrLfAql_X_GS-396" value="Plante 4&amp;nbsp; &amp;nbsp; &amp;nbsp; &amp;nbsp; &amp;nbsp; &amp;nbsp; &amp;nbsp; &amp;nbsp; &amp;nbsp; &amp;nbsp; &amp;nbsp; &amp;nbsp; &amp;nbsp;" style="text;html=1;resizable=0;autosize=1;align=center;verticalAlign=middle;points=[];fillColor=#d5e8d4;strokeColor=#82b366;rounded=0;fontStyle=2;labelBackgroundColor=none;" vertex="1" parent="V9fXNOHrXrLfAql_X_GS-382">
          <mxGeometry x="10" y="154" width="140" height="20" as="geometry" />
        </mxCell>
        <mxCell id="V9fXNOHrXrLfAql_X_GS-397" value="Plante 5&amp;nbsp; &amp;nbsp; &amp;nbsp; &amp;nbsp; &amp;nbsp; &amp;nbsp; &amp;nbsp; &amp;nbsp; &amp;nbsp; &amp;nbsp; &amp;nbsp; &amp;nbsp; &amp;nbsp;" style="text;html=1;resizable=0;autosize=1;align=center;verticalAlign=middle;points=[];fillColor=#d5e8d4;strokeColor=#82b366;rounded=0;fontStyle=2;labelBackgroundColor=none;" vertex="1" parent="V9fXNOHrXrLfAql_X_GS-382">
          <mxGeometry x="10" y="185" width="140" height="20" as="geometry" />
        </mxCell>
        <mxCell id="V9fXNOHrXrLfAql_X_GS-398" value="" style="dashed=0;labelPosition=right;align=left;shape=mxgraph.gmdl.checkbox;strokeColor=#666666;fillColor=none;strokeWidth=2;aspect=fixed;sketch=0;rounded=0;labelBackgroundColor=none;" vertex="1" parent="V9fXNOHrXrLfAql_X_GS-382">
          <mxGeometry x="134" y="40" width="10" height="10" as="geometry" />
        </mxCell>
        <mxCell id="V9fXNOHrXrLfAql_X_GS-400" value="" style="dashed=0;labelPosition=right;align=left;shape=mxgraph.gmdl.checkbox;strokeColor=#666666;fillColor=none;strokeWidth=2;aspect=fixed;sketch=0;rounded=0;labelBackgroundColor=none;" vertex="1" parent="V9fXNOHrXrLfAql_X_GS-382">
          <mxGeometry x="134" y="70" width="10" height="10" as="geometry" />
        </mxCell>
        <mxCell id="V9fXNOHrXrLfAql_X_GS-401" value="" style="dashed=0;labelPosition=right;align=left;shape=mxgraph.gmdl.checkbox;strokeColor=#666666;fillColor=none;strokeWidth=2;aspect=fixed;sketch=0;rounded=0;labelBackgroundColor=none;" vertex="1" parent="V9fXNOHrXrLfAql_X_GS-382">
          <mxGeometry x="134" y="100" width="10" height="10" as="geometry" />
        </mxCell>
        <mxCell id="V9fXNOHrXrLfAql_X_GS-402" value="" style="dashed=0;labelPosition=right;align=left;shape=mxgraph.gmdl.checkbox;strokeColor=#666666;fillColor=none;strokeWidth=2;aspect=fixed;sketch=0;rounded=0;labelBackgroundColor=none;" vertex="1" parent="V9fXNOHrXrLfAql_X_GS-382">
          <mxGeometry x="134" y="159" width="10" height="10" as="geometry" />
        </mxCell>
        <mxCell id="V9fXNOHrXrLfAql_X_GS-406" value="" style="dashed=0;labelPosition=right;align=left;shape=mxgraph.gmdl.checkbox;strokeColor=none;fillColor=#676767;strokeWidth=2;aspect=fixed;sketch=0;rounded=0;labelBackgroundColor=none;" vertex="1" parent="V9fXNOHrXrLfAql_X_GS-382">
          <mxGeometry x="134" y="130" width="10" height="10" as="geometry" />
        </mxCell>
        <mxCell id="V9fXNOHrXrLfAql_X_GS-407" value="" style="dashed=0;labelPosition=right;align=left;shape=mxgraph.gmdl.checkbox;strokeColor=none;fillColor=#676767;strokeWidth=2;aspect=fixed;sketch=0;rounded=0;labelBackgroundColor=none;" vertex="1" parent="V9fXNOHrXrLfAql_X_GS-382">
          <mxGeometry x="134" y="190" width="10" height="10" as="geometry" />
        </mxCell>
        <mxCell id="V9fXNOHrXrLfAql_X_GS-408" value="" style="endArrow=classic;html=1;rounded=0;exitX=0.906;exitY=0.993;exitDx=0;exitDy=0;exitPerimeter=0;fillColor=#dae8fc;strokeColor=#6c8ebf;entryX=1.019;entryY=0.878;entryDx=0;entryDy=0;entryPerimeter=0;" edge="1" parent="1" target="V9fXNOHrXrLfAql_X_GS-2">
          <mxGeometry width="50" height="50" relative="1" as="geometry">
            <mxPoint x="1010" y="1030.0000000000002" as="sourcePoint" />
            <mxPoint x="1118.8" y="1092.52" as="targetPoint" />
          </mxGeometry>
        </mxCell>
        <mxCell id="V9fXNOHrXrLfAql_X_GS-411" value="" style="endArrow=classic;html=1;rounded=0;fillColor=#dae8fc;strokeColor=#6c8ebf;exitX=0.835;exitY=0.591;exitDx=0;exitDy=0;exitPerimeter=0;entryX=1.009;entryY=0.342;entryDx=0;entryDy=0;entryPerimeter=0;" edge="1" parent="1" source="V9fXNOHrXrLfAql_X_GS-271" target="V9fXNOHrXrLfAql_X_GS-2">
          <mxGeometry width="50" height="50" relative="1" as="geometry">
            <mxPoint x="760" y="650" as="sourcePoint" />
            <mxPoint x="1080" y="680" as="targetPoint" />
          </mxGeometry>
        </mxCell>
        <mxCell id="V9fXNOHrXrLfAql_X_GS-412" value="" style="endArrow=classic;html=1;rounded=0;fillColor=#dae8fc;strokeColor=#6c8ebf;exitX=0.803;exitY=0.561;exitDx=0;exitDy=0;exitPerimeter=0;" edge="1" parent="1" source="V9fXNOHrXrLfAql_X_GS-351">
          <mxGeometry width="50" height="50" relative="1" as="geometry">
            <mxPoint x="977.3600000000001" y="663.4559999999999" as="sourcePoint" />
            <mxPoint x="560" y="733" as="targetPoint" />
          </mxGeometry>
        </mxCell>
        <mxCell id="V9fXNOHrXrLfAql_X_GS-413" value="- Element Ajouté ou Modifié en BDD&lt;br&gt;- Element Ajouté ou Modifié dans la liste" style="text;html=1;resizable=0;autosize=1;align=left;verticalAlign=middle;points=[];fillColor=#f5f5f5;strokeColor=#666666;rounded=0;labelBackgroundColor=none;labelBorderColor=none;fontColor=#333333;" vertex="1" parent="1">
          <mxGeometry x="30" y="890" width="230" height="30" as="geometry" />
        </mxCell>
        <mxCell id="V9fXNOHrXrLfAql_X_GS-414" value="" style="endArrow=classic;html=1;rounded=0;fillColor=#dae8fc;strokeColor=#6c8ebf;entryX=0.993;entryY=0.584;entryDx=0;entryDy=0;entryPerimeter=0;exitX=0.05;exitY=0.5;exitDx=0;exitDy=0;exitPerimeter=0;" edge="1" parent="1" source="V9fXNOHrXrLfAql_X_GS-353" target="V9fXNOHrXrLfAql_X_GS-413">
          <mxGeometry width="50" height="50" relative="1" as="geometry">
            <mxPoint x="324.9999999999999" y="904.4700000000001" as="sourcePoint" />
            <mxPoint x="260.84000000000003" y="904.33" as="targetPoint" />
          </mxGeometry>
        </mxCell>
        <mxCell id="V9fXNOHrXrLfAql_X_GS-415" value="" style="endArrow=classic;html=1;rounded=0;fillColor=#dae8fc;strokeColor=#6c8ebf;entryX=1.008;entryY=0.479;entryDx=0;entryDy=0;entryPerimeter=0;exitX=-0.029;exitY=0.548;exitDx=0;exitDy=0;exitPerimeter=0;" edge="1" parent="1" source="V9fXNOHrXrLfAql_X_GS-355" target="V9fXNOHrXrLfAql_X_GS-413">
          <mxGeometry width="50" height="50" relative="1" as="geometry">
            <mxPoint x="350" y="950" as="sourcePoint" />
            <mxPoint x="268.39" y="917.52" as="targetPoint" />
          </mxGeometry>
        </mxCell>
        <mxCell id="V9fXNOHrXrLfAql_X_GS-416" value="" style="endArrow=classic;html=1;rounded=0;fillColor=#dae8fc;strokeColor=#6c8ebf;entryX=1.01;entryY=0.354;entryDx=0;entryDy=0;entryPerimeter=0;exitX=0.031;exitY=0.673;exitDx=0;exitDy=0;exitPerimeter=0;" edge="1" parent="1" source="V9fXNOHrXrLfAql_X_GS-350" target="V9fXNOHrXrLfAql_X_GS-413">
          <mxGeometry width="50" height="50" relative="1" as="geometry">
            <mxPoint x="360" y="960" as="sourcePoint" />
            <mxPoint x="278.39" y="927.52" as="targetPoint" />
          </mxGeometry>
        </mxCell>
        <mxCell id="V9fXNOHrXrLfAql_X_GS-417" value="" style="endArrow=classic;html=1;rounded=0;fillColor=#dae8fc;strokeColor=#6c8ebf;exitX=0.492;exitY=0.965;exitDx=0;exitDy=0;exitPerimeter=0;" edge="1" parent="1" source="V9fXNOHrXrLfAql_X_GS-354">
          <mxGeometry width="50" height="50" relative="1" as="geometry">
            <mxPoint x="339.96000000000004" y="889.885" as="sourcePoint" />
            <mxPoint x="270" y="890" as="targetPoint" />
          </mxGeometry>
        </mxCell>
      </root>
    </mxGraphModel>
  </diagram>
</mxfile>
